<svg xmlns="http://www.w3.org/2000/svg" xmlns:xlink="http://www.w3.org/1999/xlink" contentStyleType="text/css" height="779px" preserveAspectRatio="none" style="width:1753px;height:779px;background:#FFFFFF;" version="1.1" viewBox="0 0 1753 779" width="1753px" zoomAndPan="magnify"><defs/><g><!--class Project--><g id="elem_Project"><rect codeLine="1" fill="#F1F1F1" height="194.6719" id="Project" rx="2.5" ry="2.5" style="stroke:#181818;stroke-width:0.5;" width="258.9004" x="742" y="230"/><ellipse cx="842.9736" cy="246" fill="#ADD1B2" rx="11" ry="11" style="stroke:#181818;stroke-width:1;"/><path d="M845.9424,251.6406 Q845.3643,251.9375 844.7236,252.0781 Q844.083,252.2344 843.3799,252.2344 Q840.8799,252.2344 839.5518,250.5938 Q838.2393,248.9375 838.2393,245.8125 Q838.2393,242.6875 839.5518,241.0313 Q840.8799,239.375 843.3799,239.375 Q844.083,239.375 844.7236,239.5313 Q845.3799,239.6875 845.9424,239.9844 L845.9424,242.7031 Q845.3174,242.125 844.7236,241.8594 Q844.1299,241.5781 843.5049,241.5781 Q842.1611,241.5781 841.4736,242.6563 Q840.7861,243.7188 840.7861,245.8125 Q840.7861,247.9063 841.4736,248.9844 Q842.1611,250.0469 843.5049,250.0469 Q844.1299,250.0469 844.7236,249.7813 Q845.3174,249.5 845.9424,248.9219 L845.9424,251.6406 Z " fill="#000000"/><text fill="#000000" font-family="sans-serif" font-size="14" lengthAdjust="spacing" textLength="48.4531" x="863.4736" y="250.8467">Project</text><line style="stroke:#181818;stroke-width:0.5;" x1="743" x2="999.9004" y1="262" y2="262"/><rect fill="none" height="6" style="stroke:#C82930;stroke-width:1;" width="6" x="750" y="272.6484"/><text fill="#000000" font-family="sans-serif" font-size="14" lengthAdjust="spacing" textLength="141.1484" x="762" y="278.9951">projectName: String</text><rect fill="none" height="6" style="stroke:#C82930;stroke-width:1;" width="6" x="750" y="288.9453"/><text fill="#000000" font-family="sans-serif" font-size="14" lengthAdjust="spacing" textLength="131.2295" x="762" y="295.292">projectPath: String</text><rect fill="none" height="6" style="stroke:#C82930;stroke-width:1;" width="6" x="750" y="305.2422"/><text fill="#000000" font-family="sans-serif" font-size="14" lengthAdjust="spacing" textLength="183.1484" x="762" y="311.5889">buildSystem: BuildSystem</text><rect fill="none" height="6" style="stroke:#C82930;stroke-width:1;" width="6" x="750" y="321.5391"/><text fill="#000000" font-family="sans-serif" font-size="14" lengthAdjust="spacing" textLength="229.6533" x="762" y="327.8857">configs: List&lt;RunConfiguration&gt;</text><line style="stroke:#181818;stroke-width:0.5;" x1="743" x2="999.9004" y1="335.1875" y2="335.1875"/><ellipse cx="753" cy="348.8359" fill="#84BE84" rx="3" ry="3" style="stroke:#038048;stroke-width:1;"/><text fill="#000000" font-family="sans-serif" font-size="14" font-style="italic" lengthAdjust="spacing" textLength="55.6719" x="762" y="352.1826">create()</text><ellipse cx="753" cy="365.1328" fill="#84BE84" rx="3" ry="3" style="stroke:#038048;stroke-width:1;"/><text fill="#000000" font-family="sans-serif" font-size="14" font-style="italic" lengthAdjust="spacing" textLength="232.9004" x="762" y="368.4795">addModule(moduleName: String)</text><ellipse cx="753" cy="381.4297" fill="#84BE84" rx="3" ry="3" style="stroke:#038048;stroke-width:1;"/><text fill="#000000" font-family="sans-serif" font-size="14" lengthAdjust="spacing" textLength="45.3496" x="762" y="384.7764">build()</text><ellipse cx="753" cy="397.7266" fill="#84BE84" rx="3" ry="3" style="stroke:#038048;stroke-width:1;"/><text fill="#000000" font-family="sans-serif" font-size="14" lengthAdjust="spacing" textLength="163.8232" x="762" y="401.0732">run(args: List&lt;String&gt;)</text><ellipse cx="753" cy="414.0234" fill="#84BE84" rx="3" ry="3" style="stroke:#038048;stroke-width:1;"/><text fill="#000000" font-family="sans-serif" font-size="14" lengthAdjust="spacing" textLength="52.8281" x="762" y="417.3701">install()</text></g><!--class CProject--><g id="elem_CProject"><rect codeLine="13" fill="#F1F1F1" height="80.5938" id="CProject" rx="2.5" ry="2.5" style="stroke:#181818;stroke-width:0.5;" width="258.9004" x="7" y="518"/><ellipse cx="103.0859" cy="534" fill="#ADD1B2" rx="11" ry="11" style="stroke:#181818;stroke-width:1;"/><path d="M106.0547,539.6406 Q105.4766,539.9375 104.8359,540.0781 Q104.1953,540.2344 103.4922,540.2344 Q100.9922,540.2344 99.6641,538.5938 Q98.3516,536.9375 98.3516,533.8125 Q98.3516,530.6875 99.6641,529.0313 Q100.9922,527.375 103.4922,527.375 Q104.1953,527.375 104.8359,527.5313 Q105.4922,527.6875 106.0547,527.9844 L106.0547,530.7031 Q105.4297,530.125 104.8359,529.8594 Q104.2422,529.5781 103.6172,529.5781 Q102.2734,529.5781 101.5859,530.6563 Q100.8984,531.7188 100.8984,533.8125 Q100.8984,535.9063 101.5859,536.9844 Q102.2734,538.0469 103.6172,538.0469 Q104.2422,538.0469 104.8359,537.7813 Q105.4297,537.5 106.0547,536.9219 L106.0547,539.6406 Z " fill="#000000"/><text fill="#000000" font-family="sans-serif" font-size="14" lengthAdjust="spacing" textLength="58.2285" x="123.5859" y="538.8467">CProject</text><line style="stroke:#181818;stroke-width:0.5;" x1="8" x2="264.9004" y1="550" y2="550"/><line style="stroke:#181818;stroke-width:0.5;" x1="8" x2="264.9004" y1="558" y2="558"/><ellipse cx="18" cy="571.6484" fill="#84BE84" rx="3" ry="3" style="stroke:#038048;stroke-width:1;"/><text fill="#000000" font-family="sans-serif" font-size="14" lengthAdjust="spacing" textLength="55.6719" x="27" y="574.9951">create()</text><ellipse cx="18" cy="587.9453" fill="#84BE84" rx="3" ry="3" style="stroke:#038048;stroke-width:1;"/><text fill="#000000" font-family="sans-serif" font-size="14" lengthAdjust="spacing" textLength="232.9004" x="27" y="591.292">addModule(moduleName: String)</text></g><!--class CppProject--><g id="elem_CppProject"><rect codeLine="18" fill="#F1F1F1" height="80.5938" id="CppProject" rx="2.5" ry="2.5" style="stroke:#181818;stroke-width:0.5;" width="258.9004" x="301" y="518"/><ellipse cx="388.1992" cy="534" fill="#ADD1B2" rx="11" ry="11" style="stroke:#181818;stroke-width:1;"/><path d="M391.168,539.6406 Q390.5898,539.9375 389.9492,540.0781 Q389.3086,540.2344 388.6055,540.2344 Q386.1055,540.2344 384.7773,538.5938 Q383.4648,536.9375 383.4648,533.8125 Q383.4648,530.6875 384.7773,529.0313 Q386.1055,527.375 388.6055,527.375 Q389.3086,527.375 389.9492,527.5313 Q390.6055,527.6875 391.168,527.9844 L391.168,530.7031 Q390.543,530.125 389.9492,529.8594 Q389.3555,529.5781 388.7305,529.5781 Q387.3867,529.5781 386.6992,530.6563 Q386.0117,531.7188 386.0117,533.8125 Q386.0117,535.9063 386.6992,536.9844 Q387.3867,538.0469 388.7305,538.0469 Q389.3555,538.0469 389.9492,537.7813 Q390.543,537.5 391.168,536.9219 L391.168,539.6406 Z " fill="#000000"/><text fill="#000000" font-family="sans-serif" font-size="14" lengthAdjust="spacing" textLength="76.002" x="408.6992" y="538.8467">CppProject</text><line style="stroke:#181818;stroke-width:0.5;" x1="302" x2="558.9004" y1="550" y2="550"/><line style="stroke:#181818;stroke-width:0.5;" x1="302" x2="558.9004" y1="558" y2="558"/><ellipse cx="312" cy="571.6484" fill="#84BE84" rx="3" ry="3" style="stroke:#038048;stroke-width:1;"/><text fill="#000000" font-family="sans-serif" font-size="14" lengthAdjust="spacing" textLength="55.6719" x="321" y="574.9951">create()</text><ellipse cx="312" cy="587.9453" fill="#84BE84" rx="3" ry="3" style="stroke:#038048;stroke-width:1;"/><text fill="#000000" font-family="sans-serif" font-size="14" lengthAdjust="spacing" textLength="232.9004" x="321" y="591.292">addModule(moduleName: String)</text></g><!--class JavaProject--><g id="elem_JavaProject"><rect codeLine="23" fill="#F1F1F1" height="80.5938" id="JavaProject" rx="2.5" ry="2.5" style="stroke:#181818;stroke-width:0.5;" width="258.9004" x="595" y="518"/><ellipse cx="681.1875" cy="534" fill="#ADD1B2" rx="11" ry="11" style="stroke:#181818;stroke-width:1;"/><path d="M684.1563,539.6406 Q683.5781,539.9375 682.9375,540.0781 Q682.2969,540.2344 681.5938,540.2344 Q679.0938,540.2344 677.7656,538.5938 Q676.4531,536.9375 676.4531,533.8125 Q676.4531,530.6875 677.7656,529.0313 Q679.0938,527.375 681.5938,527.375 Q682.2969,527.375 682.9375,527.5313 Q683.5938,527.6875 684.1563,527.9844 L684.1563,530.7031 Q683.5313,530.125 682.9375,529.8594 Q682.3438,529.5781 681.7188,529.5781 Q680.375,529.5781 679.6875,530.6563 Q679,531.7188 679,533.8125 Q679,535.9063 679.6875,536.9844 Q680.375,538.0469 681.7188,538.0469 Q682.3438,538.0469 682.9375,537.7813 Q683.5313,537.5 684.1563,536.9219 L684.1563,539.6406 Z " fill="#000000"/><text fill="#000000" font-family="sans-serif" font-size="14" lengthAdjust="spacing" textLength="78.0254" x="701.6875" y="538.8467">JavaProject</text><line style="stroke:#181818;stroke-width:0.5;" x1="596" x2="852.9004" y1="550" y2="550"/><line style="stroke:#181818;stroke-width:0.5;" x1="596" x2="852.9004" y1="558" y2="558"/><ellipse cx="606" cy="571.6484" fill="#84BE84" rx="3" ry="3" style="stroke:#038048;stroke-width:1;"/><text fill="#000000" font-family="sans-serif" font-size="14" lengthAdjust="spacing" textLength="55.6719" x="615" y="574.9951">create()</text><ellipse cx="606" cy="587.9453" fill="#84BE84" rx="3" ry="3" style="stroke:#038048;stroke-width:1;"/><text fill="#000000" font-family="sans-serif" font-size="14" lengthAdjust="spacing" textLength="232.9004" x="615" y="591.292">addModule(moduleName: String)</text></g><!--class PythonProject--><g id="elem_PythonProject"><rect codeLine="28" fill="#F1F1F1" height="80.5938" id="PythonProject" rx="2.5" ry="2.5" style="stroke:#181818;stroke-width:0.5;" width="258.9004" x="889" y="518"/><ellipse cx="965.7095" cy="534" fill="#ADD1B2" rx="11" ry="11" style="stroke:#181818;stroke-width:1;"/><path d="M968.6782,539.6406 Q968.1001,539.9375 967.4595,540.0781 Q966.8188,540.2344 966.1157,540.2344 Q963.6157,540.2344 962.2876,538.5938 Q960.9751,536.9375 960.9751,533.8125 Q960.9751,530.6875 962.2876,529.0313 Q963.6157,527.375 966.1157,527.375 Q966.8188,527.375 967.4595,527.5313 Q968.1157,527.6875 968.6782,527.9844 L968.6782,530.7031 Q968.0532,530.125 967.4595,529.8594 Q966.8657,529.5781 966.2407,529.5781 Q964.897,529.5781 964.2095,530.6563 Q963.522,531.7188 963.522,533.8125 Q963.522,535.9063 964.2095,536.9844 Q964.897,538.0469 966.2407,538.0469 Q966.8657,538.0469 967.4595,537.7813 Q968.0532,537.5 968.6782,536.9219 L968.6782,539.6406 Z " fill="#000000"/><text fill="#000000" font-family="sans-serif" font-size="14" lengthAdjust="spacing" textLength="96.9814" x="986.2095" y="538.8467">PythonProject</text><line style="stroke:#181818;stroke-width:0.5;" x1="890" x2="1146.9004" y1="550" y2="550"/><line style="stroke:#181818;stroke-width:0.5;" x1="890" x2="1146.9004" y1="558" y2="558"/><ellipse cx="900" cy="571.6484" fill="#84BE84" rx="3" ry="3" style="stroke:#038048;stroke-width:1;"/><text fill="#000000" font-family="sans-serif" font-size="14" lengthAdjust="spacing" textLength="55.6719" x="909" y="574.9951">create()</text><ellipse cx="900" cy="587.9453" fill="#84BE84" rx="3" ry="3" style="stroke:#038048;stroke-width:1;"/><text fill="#000000" font-family="sans-serif" font-size="14" lengthAdjust="spacing" textLength="232.9004" x="909" y="591.292">addModule(moduleName: String)</text></g><!--class RunConfiguration--><g id="elem_RunConfiguration"><rect codeLine="33" fill="#F1F1F1" height="162.0781" id="RunConfiguration" rx="2.5" ry="2.5" style="stroke:#181818;stroke-width:0.5;" width="287.7412" x="727.5" y="7"/><ellipse cx="805.9116" cy="23" fill="#ADD1B2" rx="11" ry="11" style="stroke:#181818;stroke-width:1;"/><path d="M808.8804,28.6406 Q808.3022,28.9375 807.6616,29.0781 Q807.021,29.2344 806.3179,29.2344 Q803.8179,29.2344 802.4897,27.5938 Q801.1772,25.9375 801.1772,22.8125 Q801.1772,19.6875 802.4897,18.0313 Q803.8179,16.375 806.3179,16.375 Q807.021,16.375 807.6616,16.5313 Q808.3179,16.6875 808.8804,16.9844 L808.8804,19.7031 Q808.2554,19.125 807.6616,18.8594 Q807.0679,18.5781 806.4429,18.5781 Q805.0991,18.5781 804.4116,19.6563 Q803.7241,20.7188 803.7241,22.8125 Q803.7241,24.9063 804.4116,25.9844 Q805.0991,27.0469 806.4429,27.0469 Q807.0679,27.0469 807.6616,26.7813 Q808.2554,26.5 808.8804,25.9219 L808.8804,28.6406 Z " fill="#000000"/><text fill="#000000" font-family="sans-serif" font-size="14" lengthAdjust="spacing" textLength="122.418" x="826.4116" y="27.8467">RunConfiguration</text><line style="stroke:#181818;stroke-width:0.5;" x1="728.5" x2="1014.2412" y1="39" y2="39"/><rect fill="none" height="6" style="stroke:#C82930;stroke-width:1;" width="6" x="735.5" y="49.6484"/><text fill="#000000" font-family="sans-serif" font-size="14" lengthAdjust="spacing" textLength="90.6514" x="747.5" y="55.9951">name: String</text><rect fill="none" height="6" style="stroke:#C82930;stroke-width:1;" width="6" x="735.5" y="65.9453"/><text fill="#000000" font-family="sans-serif" font-size="14" lengthAdjust="spacing" textLength="106.5176" x="747.5" y="72.292">project: Project</text><rect fill="none" height="6" style="stroke:#C82930;stroke-width:1;" width="6" x="735.5" y="82.2422"/><text fill="#000000" font-family="sans-serif" font-size="14" lengthAdjust="spacing" textLength="129.3975" x="747.5" y="88.5889">args: List&lt;String&gt;</text><line style="stroke:#181818;stroke-width:0.5;" x1="728.5" x2="1014.2412" y1="95.8906" y2="95.8906"/><ellipse cx="738.5" cy="109.5391" fill="#84BE84" rx="3" ry="3" style="stroke:#038048;stroke-width:1;"/><text fill="#000000" font-family="sans-serif" font-size="14" lengthAdjust="spacing" textLength="261.7412" x="747.5" y="112.8857">create(name: String, project: Project)</text><ellipse cx="738.5" cy="125.8359" fill="#84BE84" rx="3" ry="3" style="stroke:#038048;stroke-width:1;"/><text fill="#000000" font-family="sans-serif" font-size="14" lengthAdjust="spacing" textLength="188.5146" x="747.5" y="129.1826">modify(args: List&lt;String&gt;)</text><ellipse cx="738.5" cy="142.1328" fill="#84BE84" rx="3" ry="3" style="stroke:#038048;stroke-width:1;"/><text fill="#000000" font-family="sans-serif" font-size="14" lengthAdjust="spacing" textLength="55.0293" x="747.5" y="145.4795">delete()</text><ellipse cx="738.5" cy="158.4297" fill="#84BE84" rx="3" ry="3" style="stroke:#038048;stroke-width:1;"/><text fill="#000000" font-family="sans-serif" font-size="14" lengthAdjust="spacing" textLength="67.1084" x="747.5" y="161.7764">execute()</text></g><!--class BuildSystem--><g id="elem_BuildSystem"><rect codeLine="43" fill="#F1F1F1" height="113.1875" id="BuildSystem" rx="2.5" ry="2.5" style="stroke:#181818;stroke-width:0.5;" width="119.3496" x="1183" y="502"/><ellipse cx="1198" cy="518" fill="#ADD1B2" rx="11" ry="11" style="stroke:#181818;stroke-width:1;"/><path d="M1200.9688,523.6406 Q1200.3906,523.9375 1199.75,524.0781 Q1199.1094,524.2344 1198.4063,524.2344 Q1195.9063,524.2344 1194.5781,522.5938 Q1193.2656,520.9375 1193.2656,517.8125 Q1193.2656,514.6875 1194.5781,513.0313 Q1195.9063,511.375 1198.4063,511.375 Q1199.1094,511.375 1199.75,511.5313 Q1200.4063,511.6875 1200.9688,511.9844 L1200.9688,514.7031 Q1200.3438,514.125 1199.75,513.8594 Q1199.1563,513.5781 1198.5313,513.5781 Q1197.1875,513.5781 1196.5,514.6563 Q1195.8125,515.7188 1195.8125,517.8125 Q1195.8125,519.9063 1196.5,520.9844 Q1197.1875,522.0469 1198.5313,522.0469 Q1199.1563,522.0469 1199.75,521.7813 Q1200.3438,521.5 1200.9688,520.9219 L1200.9688,523.6406 Z " fill="#000000"/><text fill="#000000" font-family="sans-serif" font-size="14" lengthAdjust="spacing" textLength="87.3496" x="1212" y="522.8467">BuildSystem</text><line style="stroke:#181818;stroke-width:0.5;" x1="1184" x2="1301.3496" y1="534" y2="534"/><rect fill="none" height="6" style="stroke:#C82930;stroke-width:1;" width="6" x="1191" y="544.6484"/><text fill="#000000" font-family="sans-serif" font-size="14" lengthAdjust="spacing" textLength="90.6514" x="1203" y="550.9951">name: String</text><line style="stroke:#181818;stroke-width:0.5;" x1="1184" x2="1301.3496" y1="558.2969" y2="558.2969"/><ellipse cx="1194" cy="571.9453" fill="#84BE84" rx="3" ry="3" style="stroke:#038048;stroke-width:1;"/><text fill="#000000" font-family="sans-serif" font-size="14" lengthAdjust="spacing" textLength="77.0068" x="1203" y="575.292">configure()</text><ellipse cx="1194" cy="588.2422" fill="#84BE84" rx="3" ry="3" style="stroke:#038048;stroke-width:1;"/><text fill="#000000" font-family="sans-serif" font-size="14" lengthAdjust="spacing" textLength="45.3496" x="1203" y="591.5889">build()</text><ellipse cx="1194" cy="604.5391" fill="#84BE84" rx="3" ry="3" style="stroke:#038048;stroke-width:1;"/><text fill="#000000" font-family="sans-serif" font-size="14" lengthAdjust="spacing" textLength="48.5762" x="1203" y="607.8857">clean()</text></g><!--class CMake--><g id="elem_CMake"><rect codeLine="50" fill="#F1F1F1" height="96.8906" id="CMake" rx="2.5" ry="2.5" style="stroke:#181818;stroke-width:0.5;" width="103.0068" x="1053" y="676"/><ellipse cx="1078.7336" cy="692" fill="#ADD1B2" rx="11" ry="11" style="stroke:#181818;stroke-width:1;"/><path d="M1081.7024,697.6406 Q1081.1243,697.9375 1080.4836,698.0781 Q1079.843,698.2344 1079.1399,698.2344 Q1076.6399,698.2344 1075.3118,696.5938 Q1073.9993,694.9375 1073.9993,691.8125 Q1073.9993,688.6875 1075.3118,687.0313 Q1076.6399,685.375 1079.1399,685.375 Q1079.843,685.375 1080.4836,685.5313 Q1081.1399,685.6875 1081.7024,685.9844 L1081.7024,688.7031 Q1081.0774,688.125 1080.4836,687.8594 Q1079.8899,687.5781 1079.2649,687.5781 Q1077.9211,687.5781 1077.2336,688.6563 Q1076.5461,689.7188 1076.5461,691.8125 Q1076.5461,693.9063 1077.2336,694.9844 Q1077.9211,696.0469 1079.2649,696.0469 Q1079.8899,696.0469 1080.4836,695.7813 Q1081.0774,695.5 1081.7024,694.9219 L1081.7024,697.6406 Z " fill="#000000"/><text fill="#000000" font-family="sans-serif" font-size="14" lengthAdjust="spacing" textLength="47.1543" x="1095.1189" y="696.8467">CMake</text><line style="stroke:#181818;stroke-width:0.5;" x1="1054" x2="1155.0068" y1="708" y2="708"/><line style="stroke:#181818;stroke-width:0.5;" x1="1054" x2="1155.0068" y1="716" y2="716"/><ellipse cx="1064" cy="729.6484" fill="#84BE84" rx="3" ry="3" style="stroke:#038048;stroke-width:1;"/><text fill="#000000" font-family="sans-serif" font-size="14" lengthAdjust="spacing" textLength="77.0068" x="1073" y="732.9951">configure()</text><ellipse cx="1064" cy="745.9453" fill="#84BE84" rx="3" ry="3" style="stroke:#038048;stroke-width:1;"/><text fill="#000000" font-family="sans-serif" font-size="14" lengthAdjust="spacing" textLength="45.3496" x="1073" y="749.292">build()</text><ellipse cx="1064" cy="762.2422" fill="#84BE84" rx="3" ry="3" style="stroke:#038048;stroke-width:1;"/><text fill="#000000" font-family="sans-serif" font-size="14" lengthAdjust="spacing" textLength="48.5762" x="1073" y="765.5889">clean()</text></g><!--class Makefile--><g id="elem_Makefile"><rect codeLine="56" fill="#F1F1F1" height="96.8906" id="Makefile" rx="2.5" ry="2.5" style="stroke:#181818;stroke-width:0.5;" width="103.0068" x="1191" y="676"/><ellipse cx="1211.538" cy="692" fill="#ADD1B2" rx="11" ry="11" style="stroke:#181818;stroke-width:1;"/><path d="M1214.5067,697.6406 Q1213.9286,697.9375 1213.288,698.0781 Q1212.6474,698.2344 1211.9442,698.2344 Q1209.4442,698.2344 1208.1161,696.5938 Q1206.8036,694.9375 1206.8036,691.8125 Q1206.8036,688.6875 1208.1161,687.0313 Q1209.4442,685.375 1211.9442,685.375 Q1212.6474,685.375 1213.288,685.5313 Q1213.9442,685.6875 1214.5067,685.9844 L1214.5067,688.7031 Q1213.8817,688.125 1213.288,687.8594 Q1212.6942,687.5781 1212.0692,687.5781 Q1210.7255,687.5781 1210.038,688.6563 Q1209.3505,689.7188 1209.3505,691.8125 Q1209.3505,693.9063 1210.038,694.9844 Q1210.7255,696.0469 1212.0692,696.0469 Q1212.6942,696.0469 1213.288,695.7813 Q1213.8817,695.5 1214.5067,694.9219 L1214.5067,697.6406 Z " fill="#000000"/><text fill="#000000" font-family="sans-serif" font-size="14" lengthAdjust="spacing" textLength="58.7002" x="1226.7687" y="696.8467">Makefile</text><line style="stroke:#181818;stroke-width:0.5;" x1="1192" x2="1293.0068" y1="708" y2="708"/><line style="stroke:#181818;stroke-width:0.5;" x1="1192" x2="1293.0068" y1="716" y2="716"/><ellipse cx="1202" cy="729.6484" fill="#84BE84" rx="3" ry="3" style="stroke:#038048;stroke-width:1;"/><text fill="#000000" font-family="sans-serif" font-size="14" lengthAdjust="spacing" textLength="77.0068" x="1211" y="732.9951">configure()</text><ellipse cx="1202" cy="745.9453" fill="#84BE84" rx="3" ry="3" style="stroke:#038048;stroke-width:1;"/><text fill="#000000" font-family="sans-serif" font-size="14" lengthAdjust="spacing" textLength="45.3496" x="1211" y="749.292">build()</text><ellipse cx="1202" cy="762.2422" fill="#84BE84" rx="3" ry="3" style="stroke:#038048;stroke-width:1;"/><text fill="#000000" font-family="sans-serif" font-size="14" lengthAdjust="spacing" textLength="48.5762" x="1211" y="765.5889">clean()</text></g><!--class Ninja--><g id="elem_Ninja"><rect codeLine="62" fill="#F1F1F1" height="96.8906" id="Ninja" rx="2.5" ry="2.5" style="stroke:#181818;stroke-width:0.5;" width="103.0068" x="1329" y="676"/><ellipse cx="1359.8862" cy="692" fill="#ADD1B2" rx="11" ry="11" style="stroke:#181818;stroke-width:1;"/><path d="M1362.855,697.6406 Q1362.2769,697.9375 1361.6362,698.0781 Q1360.9956,698.2344 1360.2925,698.2344 Q1357.7925,698.2344 1356.4644,696.5938 Q1355.1519,694.9375 1355.1519,691.8125 Q1355.1519,688.6875 1356.4644,687.0313 Q1357.7925,685.375 1360.2925,685.375 Q1360.9956,685.375 1361.6362,685.5313 Q1362.2925,685.6875 1362.855,685.9844 L1362.855,688.7031 Q1362.23,688.125 1361.6362,687.8594 Q1361.0425,687.5781 1360.4175,687.5781 Q1359.0737,687.5781 1358.3862,688.6563 Q1357.6987,689.7188 1357.6987,691.8125 Q1357.6987,693.9063 1358.3862,694.9844 Q1359.0737,696.0469 1360.4175,696.0469 Q1361.0425,696.0469 1361.6362,695.7813 Q1362.23,695.5 1362.855,694.9219 L1362.855,697.6406 Z " fill="#000000"/><text fill="#000000" font-family="sans-serif" font-size="14" lengthAdjust="spacing" textLength="35.7041" x="1377.4165" y="696.8467">Ninja</text><line style="stroke:#181818;stroke-width:0.5;" x1="1330" x2="1431.0068" y1="708" y2="708"/><line style="stroke:#181818;stroke-width:0.5;" x1="1330" x2="1431.0068" y1="716" y2="716"/><ellipse cx="1340" cy="729.6484" fill="#84BE84" rx="3" ry="3" style="stroke:#038048;stroke-width:1;"/><text fill="#000000" font-family="sans-serif" font-size="14" lengthAdjust="spacing" textLength="77.0068" x="1349" y="732.9951">configure()</text><ellipse cx="1340" cy="745.9453" fill="#84BE84" rx="3" ry="3" style="stroke:#038048;stroke-width:1;"/><text fill="#000000" font-family="sans-serif" font-size="14" lengthAdjust="spacing" textLength="45.3496" x="1349" y="749.292">build()</text><ellipse cx="1340" cy="762.2422" fill="#84BE84" rx="3" ry="3" style="stroke:#038048;stroke-width:1;"/><text fill="#000000" font-family="sans-serif" font-size="14" lengthAdjust="spacing" textLength="48.5762" x="1349" y="765.5889">clean()</text></g><!--class Controller--><g id="elem_Controller"><rect codeLine="68" fill="#F1F1F1" height="64.2969" id="Controller" rx="2.5" ry="2.5" style="stroke:#181818;stroke-width:0.5;" width="409.4893" x="1337" y="526.5"/><ellipse cx="1502.9082" cy="542.5" fill="#ADD1B2" rx="11" ry="11" style="stroke:#181818;stroke-width:1;"/><path d="M1505.877,548.1406 Q1505.2988,548.4375 1504.6582,548.5781 Q1504.0176,548.7344 1503.3145,548.7344 Q1500.8145,548.7344 1499.4863,547.0938 Q1498.1738,545.4375 1498.1738,542.3125 Q1498.1738,539.1875 1499.4863,537.5313 Q1500.8145,535.875 1503.3145,535.875 Q1504.0176,535.875 1504.6582,536.0313 Q1505.3145,536.1875 1505.877,536.4844 L1505.877,539.2031 Q1505.252,538.625 1504.6582,538.3594 Q1504.0645,538.0781 1503.4395,538.0781 Q1502.0957,538.0781 1501.4082,539.1563 Q1500.7207,540.2188 1500.7207,542.3125 Q1500.7207,544.4063 1501.4082,545.4844 Q1502.0957,546.5469 1503.4395,546.5469 Q1504.0645,546.5469 1504.6582,546.2813 Q1505.252,546 1505.877,545.4219 L1505.877,548.1406 Z " fill="#000000"/><text fill="#000000" font-family="sans-serif" font-size="14" lengthAdjust="spacing" textLength="69.1729" x="1523.4082" y="547.3467">Controller</text><line style="stroke:#181818;stroke-width:0.5;" x1="1338" x2="1745.4893" y1="558.5" y2="558.5"/><line style="stroke:#181818;stroke-width:0.5;" x1="1338" x2="1745.4893" y1="566.5" y2="566.5"/><ellipse cx="1348" cy="580.1484" fill="#84BE84" rx="3" ry="3" style="stroke:#038048;stroke-width:1;"/><text fill="#000000" font-family="sans-serif" font-size="14" lengthAdjust="spacing" textLength="383.4893" x="1357" y="583.4951">addConfig(project: Project *, config: RunConfiguration)</text></g><!--reverse link Project to BuildSystem--><g id="link_Project_BuildSystem"><path codeLine="73" d="M1011.5071,407.5963 C1063.2871,437.6663 1112.66,467.47 1165.5,502 C1171.16,505.7 1176.97,509.63 1182.76,513.64 " fill="none" id="Project-backto-BuildSystem" style="stroke:#181818;stroke-width:1;"/><polygon fill="#181818" points="1001.13,401.57,1004.3098,408.0422,1011.5071,407.5963,1008.3273,401.1241,1001.13,401.57" style="stroke:#181818;stroke-width:1;"/><text fill="#000000" font-family="sans-serif" font-size="13" lengthAdjust="spacing" textLength="24.8066" x="1150.0445" y="504.3222">1..1</text></g><!--link Project to Controller--><g id="link_Project_Controller"><path codeLine="74" d="M1001.08,372.79 C1133.18,417.94 1334.68,486.81 1450.68,526.46 " fill="none" id="Project-Controller" style="stroke:#181818;stroke-width:1;"/><text fill="#000000" font-family="sans-serif" font-size="13" lengthAdjust="spacing" textLength="95.437" x="1287.5" y="468.0669">modify configs</text></g><!--link RunConfiguration to Project--><g id="link_RunConfiguration_Project"><path codeLine="75" d="M871.5,169.08 C871.5,188.6 871.5,197.69 871.5,217.9 " fill="none" id="RunConfiguration-to-Project" style="stroke:#181818;stroke-width:1;"/><polygon fill="#181818" points="871.5,229.9,875.5,223.9,871.5,217.9,867.5,223.9,871.5,229.9" style="stroke:#181818;stroke-width:1;"/><text fill="#000000" font-family="sans-serif" font-size="13" lengthAdjust="spacing" textLength="23.0356" x="847.4889" y="189.0385">0..*</text></g><!--reverse link BuildSystem to CMake--><g id="link_BuildSystem_CMake"><path codeLine="77" d="M1184.1911,628.7931 C1167.5311,648.5931 1160.53,656.91 1144.49,675.97 " fill="none" id="BuildSystem-backto-CMake" style="stroke:#181818;stroke-width:1;"/><polygon fill="none" points="1195.78,615.02,1179.6001,624.9301,1188.7822,632.656,1195.78,615.02" style="stroke:#181818;stroke-width:1;"/></g><!--reverse link BuildSystem to Makefile--><g id="link_BuildSystem_Makefile"><path codeLine="78" d="M1242.5,633.02 C1242.5,652.82 1242.5,656.91 1242.5,675.97 " fill="none" id="BuildSystem-backto-Makefile" style="stroke:#181818;stroke-width:1;"/><polygon fill="none" points="1242.5,615.02,1236.5,633.02,1248.5,633.02,1242.5,615.02" style="stroke:#181818;stroke-width:1;"/></g><!--reverse link BuildSystem to Ninja--><g id="link_BuildSystem_Ninja"><path codeLine="79" d="M1300.8089,628.7931 C1317.4689,648.5931 1324.47,656.91 1340.51,675.97 " fill="none" id="BuildSystem-backto-Ninja" style="stroke:#181818;stroke-width:1;"/><polygon fill="none" points="1289.22,615.02,1296.2178,632.656,1305.3999,624.9301,1289.22,615.02" style="stroke:#181818;stroke-width:1;"/></g><!--reverse link Project to CProject--><g id="link_Project_CProject"><path codeLine="82" d="M724.5372,368.5895 C604.8172,401.8595 439.77,449.53 283.5,502 C268.89,506.91 253.57,512.35 238.56,517.86 " fill="none" id="Project-backto-CProject" style="stroke:#181818;stroke-width:1;"/><polygon fill="none" points="741.88,363.77,722.9307,362.8086,726.1437,374.3705,741.88,363.77" style="stroke:#181818;stroke-width:1;"/></g><!--reverse link Project to CppProject--><g id="link_Project_CppProject"><path codeLine="83" d="M725.8954,404.1053 C649.4054,443.8253 571.21,484.43 506.59,517.99 " fill="none" id="Project-backto-CppProject" style="stroke:#181818;stroke-width:1;"/><polygon fill="none" points="741.87,395.81,723.1303,398.7805,728.6605,409.4302,741.87,395.81" style="stroke:#181818;stroke-width:1;"/></g><!--reverse link Project to JavaProject--><g id="link_Project_JavaProject"><path codeLine="84" d="M799.6496,440.4297 C778.8096,472.9097 766.43,492.17 750.02,517.75 " fill="none" id="Project-backto-JavaProject" style="stroke:#181818;stroke-width:1;"/><polygon fill="none" points="809.37,425.28,794.5997,437.1895,804.6995,443.6698,809.37,425.28" style="stroke:#181818;stroke-width:1;"/></g><!--reverse link Project to PythonProject--><g id="link_Project_PythonProject"><path codeLine="85" d="M943.3504,440.4297 C964.1904,472.9097 976.57,492.17 992.98,517.75 " fill="none" id="Project-backto-PythonProject" style="stroke:#181818;stroke-width:1;"/><polygon fill="none" points="933.63,425.28,938.3005,443.6698,948.4003,437.1895,933.63,425.28" style="stroke:#181818;stroke-width:1;"/></g><!--SRC=[hLJBRi8m4BpdAwoSKXvHkKQ8GxbL1Q7o1OjZmDHna1zL4UNV6vpOYME1r9PS8k_iZjSxOsC6KgALA0y4AtIEKFMDqR5UBw4W6LehGVdEHrQWzZraeodBroUfI96XbtRHmBZaMxgJ6NgZKatVDP-RW1QWQCbd9ck8ph2HIW1M5uG50KMIfn21F5-KkMOaASolswPDDzsuOg5v0iBjNgVEB4gvLC1ObNs98cm6ClSdCkntSx-5bkPuV0pHAtp2OvXM9xKl-MEu-Yew__2Rnicirvfmg8hVKPTf593OVgikwVPqH-ASCD8v7_aYM9krEql7iRUFCMnih4NBvJiDCmBSSz82FaWxvz-MNwktbFs3OKdv0VvUNWciHCaO4OR3UACMFUchWGQZXZyBh64O8vSu7gDuagQJs7ifB5oXxRPPewvzGQB0TV5pcWxYgchWp1LrvPn-Nmclamp3ThuXOkRMwRbciHluKNVD_NZdrlg0Tmb_0000]--></g></svg>