<svg xmlns="http://www.w3.org/2000/svg" xmlns:xlink="http://www.w3.org/1999/xlink" contentStyleType="text/css" height="759px" preserveAspectRatio="none" style="width:1439px;height:759px;background:#FFFFFF;" version="1.1" viewBox="0 0 1439 759" width="1439px" zoomAndPan="magnify">
  <defs/>
  <g>
    <!--class Project-->
    <g id="elem_Project">
      <rect codeLine="1" fill="#F1F1F1" height="178.375" id="Project" rx="2.5" ry="2.5" style="stroke:#181818;stroke-width:0.5;" width="258.9004" x="595" y="229"/>
      <ellipse cx="695.9736" cy="245" fill="#ADD1B2" rx="11" ry="11" style="stroke:#181818;stroke-width:1.0;"/>
      <path d="M698.9424,250.6406 Q698.3643,250.9375 697.7236,251.0781 Q697.083,251.2344 696.3799,251.2344 Q693.8799,251.2344 692.5518,249.5938 Q691.2393,247.9375 691.2393,244.8125 Q691.2393,241.6875 692.5518,240.0313 Q693.8799,238.375 696.3799,238.375 Q697.083,238.375 697.7236,238.5313 Q698.3799,238.6875 698.9424,238.9844 L698.9424,241.7031 Q698.3174,241.125 697.7236,240.8594 Q697.1299,240.5781 696.5049,240.5781 Q695.1611,240.5781 694.4736,241.6563 Q693.7861,242.7188 693.7861,244.8125 Q693.7861,246.9063 694.4736,247.9844 Q695.1611,249.0469 696.5049,249.0469 Q697.1299,249.0469 697.7236,248.7813 Q698.3174,248.5 698.9424,247.9219 L698.9424,250.6406 Z " fill="#000000"/>
      <text fill="#000000" font-family="sans-serif" font-size="14" lengthAdjust="spacing" textLength="48.4531" x="716.4736" y="249.8467">Project</text>
      <line style="stroke:#181818;stroke-width:0.5;" x1="596" x2="852.9004" y1="261" y2="261"/>
      <rect fill="none" height="6" style="stroke:#C82930;stroke-width:1.0;" width="6" x="603" y="271.6484"/>
      <text fill="#000000" font-family="sans-serif" font-size="14" lengthAdjust="spacing" textLength="141.1484" x="615" y="277.9951">projectName: String</text>
      <rect fill="none" height="6" style="stroke:#C82930;stroke-width:1.0;" width="6" x="603" y="287.9453"/>
      <text fill="#000000" font-family="sans-serif" font-size="14" lengthAdjust="spacing" textLength="131.2295" x="615" y="294.292">projectPath: String</text>
      <rect fill="none" height="6" style="stroke:#C82930;stroke-width:1.0;" width="6" x="603" y="304.2422"/>
      <text fill="#000000" font-family="sans-serif" font-size="14" lengthAdjust="spacing" textLength="183.1484" x="615" y="310.5889">buildSystem: BuildSystem</text>
      <line style="stroke:#181818;stroke-width:0.5;" x1="596" x2="852.9004" y1="317.8906" y2="317.8906"/>
      <ellipse cx="606" cy="331.5391" fill="#84BE84" rx="3" ry="3" style="stroke:#038048;stroke-width:1.0;"/>
      <text fill="#000000" font-family="sans-serif" font-size="14" lengthAdjust="spacing" textLength="55.6719" x="615" y="334.8857">create()</text>
      <ellipse cx="606" cy="347.8359" fill="#84BE84" rx="3" ry="3" style="stroke:#038048;stroke-width:1.0;"/>
      <text fill="#000000" font-family="sans-serif" font-size="14" lengthAdjust="spacing" textLength="232.9004" x="615" y="351.1826">addModule(moduleName: String)</text>
      <ellipse cx="606" cy="364.1328" fill="#84BE84" rx="3" ry="3" style="stroke:#038048;stroke-width:1.0;"/>
      <text fill="#000000" font-family="sans-serif" font-size="14" lengthAdjust="spacing" textLength="45.3496" x="615" y="367.4795">build()</text>
      <ellipse cx="606" cy="380.4297" fill="#84BE84" rx="3" ry="3" style="stroke:#038048;stroke-width:1.0;"/>
      <text fill="#000000" font-family="sans-serif" font-size="14" lengthAdjust="spacing" textLength="163.8232" x="615" y="383.7764">run(args: List&lt;String&gt;)</text>
      <ellipse cx="606" cy="396.7266" fill="#84BE84" rx="3" ry="3" style="stroke:#038048;stroke-width:1.0;"/>
      <text fill="#000000" font-family="sans-serif" font-size="14" lengthAdjust="spacing" textLength="52.8281" x="615" y="400.0732">install()</text>
    </g>
    <!--class CProject-->
    <g id="elem_CProject">
      <rect codeLine="12" fill="#F1F1F1" height="129.4844" id="CProject" rx="2.5" ry="2.5" style="stroke:#181818;stroke-width:0.5;" width="258.9004" x="7" y="467"/>
      <ellipse cx="103.0859" cy="483" fill="#ADD1B2" rx="11" ry="11" style="stroke:#181818;stroke-width:1.0;"/>
      <path d="M106.0547,488.6406 Q105.4766,488.9375 104.8359,489.0781 Q104.1953,489.2344 103.4922,489.2344 Q100.9922,489.2344 99.6641,487.5938 Q98.3516,485.9375 98.3516,482.8125 Q98.3516,479.6875 99.6641,478.0313 Q100.9922,476.375 103.4922,476.375 Q104.1953,476.375 104.8359,476.5313 Q105.4922,476.6875 106.0547,476.9844 L106.0547,479.7031 Q105.4297,479.125 104.8359,478.8594 Q104.2422,478.5781 103.6172,478.5781 Q102.2734,478.5781 101.5859,479.6563 Q100.8984,480.7188 100.8984,482.8125 Q100.8984,484.9063 101.5859,485.9844 Q102.2734,487.0469 103.6172,487.0469 Q104.2422,487.0469 104.8359,486.7813 Q105.4297,486.5 106.0547,485.9219 L106.0547,488.6406 Z " fill="#000000"/>
      <text fill="#000000" font-family="sans-serif" font-size="14" lengthAdjust="spacing" textLength="58.2285" x="123.5859" y="487.8467">CProject</text>
      <line style="stroke:#181818;stroke-width:0.5;" x1="8" x2="264.9004" y1="499" y2="499"/>
      <line style="stroke:#181818;stroke-width:0.5;" x1="8" x2="264.9004" y1="507" y2="507"/>
      <ellipse cx="18" cy="520.6484" fill="#84BE84" rx="3" ry="3" style="stroke:#038048;stroke-width:1.0;"/>
      <text fill="#000000" font-family="sans-serif" font-size="14" lengthAdjust="spacing" textLength="55.6719" x="27" y="523.9951">create()</text>
      <ellipse cx="18" cy="536.9453" fill="#84BE84" rx="3" ry="3" style="stroke:#038048;stroke-width:1.0;"/>
      <text fill="#000000" font-family="sans-serif" font-size="14" lengthAdjust="spacing" textLength="232.9004" x="27" y="540.292">addModule(moduleName: String)</text>
      <ellipse cx="18" cy="553.2422" fill="#84BE84" rx="3" ry="3" style="stroke:#038048;stroke-width:1.0;"/>
      <text fill="#000000" font-family="sans-serif" font-size="14" lengthAdjust="spacing" textLength="45.3496" x="27" y="556.5889">build()</text>
      <ellipse cx="18" cy="569.5391" fill="#84BE84" rx="3" ry="3" style="stroke:#038048;stroke-width:1.0;"/>
      <text fill="#000000" font-family="sans-serif" font-size="14" lengthAdjust="spacing" textLength="163.8232" x="27" y="572.8857">run(args: List&lt;String&gt;)</text>
      <ellipse cx="18" cy="585.8359" fill="#84BE84" rx="3" ry="3" style="stroke:#038048;stroke-width:1.0;"/>
      <text fill="#000000" font-family="sans-serif" font-size="14" lengthAdjust="spacing" textLength="52.8281" x="27" y="589.1826">install()</text>
    </g>
    <!--class CppProject-->
    <g id="elem_CppProject">
      <rect codeLine="20" fill="#F1F1F1" height="129.4844" id="CppProject" rx="2.5" ry="2.5" style="stroke:#181818;stroke-width:0.5;" width="258.9004" x="301" y="467"/>
      <ellipse cx="388.1992" cy="483" fill="#ADD1B2" rx="11" ry="11" style="stroke:#181818;stroke-width:1.0;"/>
      <path d="M391.168,488.6406 Q390.5898,488.9375 389.9492,489.0781 Q389.3086,489.2344 388.6055,489.2344 Q386.1055,489.2344 384.7773,487.5938 Q383.4648,485.9375 383.4648,482.8125 Q383.4648,479.6875 384.7773,478.0313 Q386.1055,476.375 388.6055,476.375 Q389.3086,476.375 389.9492,476.5313 Q390.6055,476.6875 391.168,476.9844 L391.168,479.7031 Q390.543,479.125 389.9492,478.8594 Q389.3555,478.5781 388.7305,478.5781 Q387.3867,478.5781 386.6992,479.6563 Q386.0117,480.7188 386.0117,482.8125 Q386.0117,484.9063 386.6992,485.9844 Q387.3867,487.0469 388.7305,487.0469 Q389.3555,487.0469 389.9492,486.7813 Q390.543,486.5 391.168,485.9219 L391.168,488.6406 Z " fill="#000000"/>
      <text fill="#000000" font-family="sans-serif" font-size="14" lengthAdjust="spacing" textLength="76.002" x="408.6992" y="487.8467">CppProject</text>
      <line style="stroke:#181818;stroke-width:0.5;" x1="302" x2="558.9004" y1="499" y2="499"/>
      <line style="stroke:#181818;stroke-width:0.5;" x1="302" x2="558.9004" y1="507" y2="507"/>
      <ellipse cx="312" cy="520.6484" fill="#84BE84" rx="3" ry="3" style="stroke:#038048;stroke-width:1.0;"/>
      <text fill="#000000" font-family="sans-serif" font-size="14" lengthAdjust="spacing" textLength="55.6719" x="321" y="523.9951">create()</text>
      <ellipse cx="312" cy="536.9453" fill="#84BE84" rx="3" ry="3" style="stroke:#038048;stroke-width:1.0;"/>
      <text fill="#000000" font-family="sans-serif" font-size="14" lengthAdjust="spacing" textLength="232.9004" x="321" y="540.292">addModule(moduleName: String)</text>
      <ellipse cx="312" cy="553.2422" fill="#84BE84" rx="3" ry="3" style="stroke:#038048;stroke-width:1.0;"/>
      <text fill="#000000" font-family="sans-serif" font-size="14" lengthAdjust="spacing" textLength="45.3496" x="321" y="556.5889">build()</text>
      <ellipse cx="312" cy="569.5391" fill="#84BE84" rx="3" ry="3" style="stroke:#038048;stroke-width:1.0;"/>
      <text fill="#000000" font-family="sans-serif" font-size="14" lengthAdjust="spacing" textLength="163.8232" x="321" y="572.8857">run(args: List&lt;String&gt;)</text>
      <ellipse cx="312" cy="585.8359" fill="#84BE84" rx="3" ry="3" style="stroke:#038048;stroke-width:1.0;"/>
      <text fill="#000000" font-family="sans-serif" font-size="14" lengthAdjust="spacing" textLength="52.8281" x="321" y="589.1826">install()</text>
    </g>
    <!--class JavaProject-->
    <g id="elem_JavaProject">
      <rect codeLine="28" fill="#F1F1F1" height="129.4844" id="JavaProject" rx="2.5" ry="2.5" style="stroke:#181818;stroke-width:0.5;" width="258.9004" x="595" y="467"/>
      <ellipse cx="681.1875" cy="483" fill="#ADD1B2" rx="11" ry="11" style="stroke:#181818;stroke-width:1.0;"/>
      <path d="M684.1563,488.6406 Q683.5781,488.9375 682.9375,489.0781 Q682.2969,489.2344 681.5938,489.2344 Q679.0938,489.2344 677.7656,487.5938 Q676.4531,485.9375 676.4531,482.8125 Q676.4531,479.6875 677.7656,478.0313 Q679.0938,476.375 681.5938,476.375 Q682.2969,476.375 682.9375,476.5313 Q683.5938,476.6875 684.1563,476.9844 L684.1563,479.7031 Q683.5313,479.125 682.9375,478.8594 Q682.3438,478.5781 681.7188,478.5781 Q680.375,478.5781 679.6875,479.6563 Q679,480.7188 679,482.8125 Q679,484.9063 679.6875,485.9844 Q680.375,487.0469 681.7188,487.0469 Q682.3438,487.0469 682.9375,486.7813 Q683.5313,486.5 684.1563,485.9219 L684.1563,488.6406 Z " fill="#000000"/>
      <text fill="#000000" font-family="sans-serif" font-size="14" lengthAdjust="spacing" textLength="78.0254" x="701.6875" y="487.8467">JavaProject</text>
      <line style="stroke:#181818;stroke-width:0.5;" x1="596" x2="852.9004" y1="499" y2="499"/>
      <line style="stroke:#181818;stroke-width:0.5;" x1="596" x2="852.9004" y1="507" y2="507"/>
      <ellipse cx="606" cy="520.6484" fill="#84BE84" rx="3" ry="3" style="stroke:#038048;stroke-width:1.0;"/>
      <text fill="#000000" font-family="sans-serif" font-size="14" lengthAdjust="spacing" textLength="55.6719" x="615" y="523.9951">create()</text>
      <ellipse cx="606" cy="536.9453" fill="#84BE84" rx="3" ry="3" style="stroke:#038048;stroke-width:1.0;"/>
      <text fill="#000000" font-family="sans-serif" font-size="14" lengthAdjust="spacing" textLength="232.9004" x="615" y="540.292">addModule(moduleName: String)</text>
      <ellipse cx="606" cy="553.2422" fill="#84BE84" rx="3" ry="3" style="stroke:#038048;stroke-width:1.0;"/>
      <text fill="#000000" font-family="sans-serif" font-size="14" lengthAdjust="spacing" textLength="45.3496" x="615" y="556.5889">build()</text>
      <ellipse cx="606" cy="569.5391" fill="#84BE84" rx="3" ry="3" style="stroke:#038048;stroke-width:1.0;"/>
      <text fill="#000000" font-family="sans-serif" font-size="14" lengthAdjust="spacing" textLength="163.8232" x="615" y="572.8857">run(args: List&lt;String&gt;)</text>
      <ellipse cx="606" cy="585.8359" fill="#84BE84" rx="3" ry="3" style="stroke:#038048;stroke-width:1.0;"/>
      <text fill="#000000" font-family="sans-serif" font-size="14" lengthAdjust="spacing" textLength="52.8281" x="615" y="589.1826">install()</text>
    </g>
    <!--class PythonProject-->
    <g id="elem_PythonProject">
      <rect codeLine="36" fill="#F1F1F1" height="129.4844" id="PythonProject" rx="2.5" ry="2.5" style="stroke:#181818;stroke-width:0.5;" width="258.9004" x="889" y="467"/>
      <ellipse cx="965.7095" cy="483" fill="#ADD1B2" rx="11" ry="11" style="stroke:#181818;stroke-width:1.0;"/>
      <path d="M968.6782,488.6406 Q968.1001,488.9375 967.4595,489.0781 Q966.8188,489.2344 966.1157,489.2344 Q963.6157,489.2344 962.2876,487.5938 Q960.9751,485.9375 960.9751,482.8125 Q960.9751,479.6875 962.2876,478.0313 Q963.6157,476.375 966.1157,476.375 Q966.8188,476.375 967.4595,476.5313 Q968.1157,476.6875 968.6782,476.9844 L968.6782,479.7031 Q968.0532,479.125 967.4595,478.8594 Q966.8657,478.5781 966.2407,478.5781 Q964.897,478.5781 964.2095,479.6563 Q963.522,480.7188 963.522,482.8125 Q963.522,484.9063 964.2095,485.9844 Q964.897,487.0469 966.2407,487.0469 Q966.8657,487.0469 967.4595,486.7813 Q968.0532,486.5 968.6782,485.9219 L968.6782,488.6406 Z " fill="#000000"/>
      <text fill="#000000" font-family="sans-serif" font-size="14" lengthAdjust="spacing" textLength="96.9814" x="986.2095" y="487.8467">PythonProject</text>
      <line style="stroke:#181818;stroke-width:0.5;" x1="890" x2="1146.9004" y1="499" y2="499"/>
      <line style="stroke:#181818;stroke-width:0.5;" x1="890" x2="1146.9004" y1="507" y2="507"/>
      <ellipse cx="900" cy="520.6484" fill="#84BE84" rx="3" ry="3" style="stroke:#038048;stroke-width:1.0;"/>
      <text fill="#000000" font-family="sans-serif" font-size="14" lengthAdjust="spacing" textLength="55.6719" x="909" y="523.9951">create()</text>
      <ellipse cx="900" cy="536.9453" fill="#84BE84" rx="3" ry="3" style="stroke:#038048;stroke-width:1.0;"/>
      <text fill="#000000" font-family="sans-serif" font-size="14" lengthAdjust="spacing" textLength="232.9004" x="909" y="540.292">addModule(moduleName: String)</text>
      <ellipse cx="900" cy="553.2422" fill="#84BE84" rx="3" ry="3" style="stroke:#038048;stroke-width:1.0;"/>
      <text fill="#000000" font-family="sans-serif" font-size="14" lengthAdjust="spacing" textLength="45.3496" x="909" y="556.5889">build()</text>
      <ellipse cx="900" cy="569.5391" fill="#84BE84" rx="3" ry="3" style="stroke:#038048;stroke-width:1.0;"/>
      <text fill="#000000" font-family="sans-serif" font-size="14" lengthAdjust="spacing" textLength="163.8232" x="909" y="572.8857">run(args: List&lt;String&gt;)</text>
      <ellipse cx="900" cy="585.8359" fill="#84BE84" rx="3" ry="3" style="stroke:#038048;stroke-width:1.0;"/>
      <text fill="#000000" font-family="sans-serif" font-size="14" lengthAdjust="spacing" textLength="52.8281" x="909" y="589.1826">install()</text>
    </g>
    <!--class RunConfiguration-->
    <g id="elem_RunConfiguration">
      <rect codeLine="44" fill="#F1F1F1" height="162.0781" id="RunConfiguration" rx="2.5" ry="2.5" style="stroke:#181818;stroke-width:0.5;" width="287.7412" x="580.5" y="7"/>
      <ellipse cx="658.9116" cy="23" fill="#ADD1B2" rx="11" ry="11" style="stroke:#181818;stroke-width:1.0;"/>
      <path d="M661.8804,28.6406 Q661.3022,28.9375 660.6616,29.0781 Q660.021,29.2344 659.3179,29.2344 Q656.8179,29.2344 655.4897,27.5938 Q654.1772,25.9375 654.1772,22.8125 Q654.1772,19.6875 655.4897,18.0313 Q656.8179,16.375 659.3179,16.375 Q660.021,16.375 660.6616,16.5313 Q661.3179,16.6875 661.8804,16.9844 L661.8804,19.7031 Q661.2554,19.125 660.6616,18.8594 Q660.0679,18.5781 659.4429,18.5781 Q658.0991,18.5781 657.4116,19.6563 Q656.7241,20.7188 656.7241,22.8125 Q656.7241,24.9063 657.4116,25.9844 Q658.0991,27.0469 659.4429,27.0469 Q660.0679,27.0469 660.6616,26.7813 Q661.2554,26.5 661.8804,25.9219 L661.8804,28.6406 Z " fill="#000000"/>
      <text fill="#000000" font-family="sans-serif" font-size="14" lengthAdjust="spacing" textLength="122.418" x="679.4116" y="27.8467">RunConfiguration</text>
      <line style="stroke:#181818;stroke-width:0.5;" x1="581.5" x2="867.2412" y1="39" y2="39"/>
      <rect fill="none" height="6" style="stroke:#C82930;stroke-width:1.0;" width="6" x="588.5" y="49.6484"/>
      <text fill="#000000" font-family="sans-serif" font-size="14" lengthAdjust="spacing" textLength="90.6514" x="600.5" y="55.9951">name: String</text>
      <rect fill="none" height="6" style="stroke:#C82930;stroke-width:1.0;" width="6" x="588.5" y="65.9453"/>
      <text fill="#000000" font-family="sans-serif" font-size="14" lengthAdjust="spacing" textLength="106.5176" x="600.5" y="72.292">project: Project</text>
      <rect fill="none" height="6" style="stroke:#C82930;stroke-width:1.0;" width="6" x="588.5" y="82.2422"/>
      <text fill="#000000" font-family="sans-serif" font-size="14" lengthAdjust="spacing" textLength="129.3975" x="600.5" y="88.5889">args: List&lt;String&gt;</text>
      <line style="stroke:#181818;stroke-width:0.5;" x1="581.5" x2="867.2412" y1="95.8906" y2="95.8906"/>
      <ellipse cx="591.5" cy="109.5391" fill="#84BE84" rx="3" ry="3" style="stroke:#038048;stroke-width:1.0;"/>
      <text fill="#000000" font-family="sans-serif" font-size="14" lengthAdjust="spacing" textLength="261.7412" x="600.5" y="112.8857">create(name: String, project: Project)</text>
      <ellipse cx="591.5" cy="125.8359" fill="#84BE84" rx="3" ry="3" style="stroke:#038048;stroke-width:1.0;"/>
      <text fill="#000000" font-family="sans-serif" font-size="14" lengthAdjust="spacing" textLength="188.5146" x="600.5" y="129.1826">modify(args: List&lt;String&gt;)</text>
      <ellipse cx="591.5" cy="142.1328" fill="#84BE84" rx="3" ry="3" style="stroke:#038048;stroke-width:1.0;"/>
      <text fill="#000000" font-family="sans-serif" font-size="14" lengthAdjust="spacing" textLength="55.0293" x="600.5" y="145.4795">delete()</text>
      <ellipse cx="591.5" cy="158.4297" fill="#84BE84" rx="3" ry="3" style="stroke:#038048;stroke-width:1.0;"/>
      <text fill="#000000" font-family="sans-serif" font-size="14" lengthAdjust="spacing" textLength="67.1084" x="600.5" y="161.7764">execute()</text>
    </g>
    <!--class BuildSystem-->
    <g id="elem_BuildSystem">
      <rect codeLine="54" fill="#F1F1F1" height="113.1875" id="BuildSystem" rx="2.5" ry="2.5" style="stroke:#181818;stroke-width:0.5;" width="119.3496" x="1183" y="475"/>
      <ellipse cx="1198" cy="491" fill="#ADD1B2" rx="11" ry="11" style="stroke:#181818;stroke-width:1.0;"/>
      <path d="M1200.9688,496.6406 Q1200.3906,496.9375 1199.75,497.0781 Q1199.1094,497.2344 1198.4063,497.2344 Q1195.9063,497.2344 1194.5781,495.5938 Q1193.2656,493.9375 1193.2656,490.8125 Q1193.2656,487.6875 1194.5781,486.0313 Q1195.9063,484.375 1198.4063,484.375 Q1199.1094,484.375 1199.75,484.5313 Q1200.4063,484.6875 1200.9688,484.9844 L1200.9688,487.7031 Q1200.3438,487.125 1199.75,486.8594 Q1199.1563,486.5781 1198.5313,486.5781 Q1197.1875,486.5781 1196.5,487.6563 Q1195.8125,488.7188 1195.8125,490.8125 Q1195.8125,492.9063 1196.5,493.9844 Q1197.1875,495.0469 1198.5313,495.0469 Q1199.1563,495.0469 1199.75,494.7813 Q1200.3438,494.5 1200.9688,493.9219 L1200.9688,496.6406 Z " fill="#000000"/>
      <text fill="#000000" font-family="sans-serif" font-size="14" lengthAdjust="spacing" textLength="87.3496" x="1212" y="495.8467">BuildSystem</text>
      <line style="stroke:#181818;stroke-width:0.5;" x1="1184" x2="1301.3496" y1="507" y2="507"/>
      <rect fill="none" height="6" style="stroke:#C82930;stroke-width:1.0;" width="6" x="1191" y="517.6484"/>
      <text fill="#000000" font-family="sans-serif" font-size="14" lengthAdjust="spacing" textLength="90.6514" x="1203" y="523.9951">name: String</text>
      <line style="stroke:#181818;stroke-width:0.5;" x1="1184" x2="1301.3496" y1="531.2969" y2="531.2969"/>
      <ellipse cx="1194" cy="544.9453" fill="#84BE84" rx="3" ry="3" style="stroke:#038048;stroke-width:1.0;"/>
      <text fill="#000000" font-family="sans-serif" font-size="14" lengthAdjust="spacing" textLength="77.0068" x="1203" y="548.292">configure()</text>
      <ellipse cx="1194" cy="561.2422" fill="#84BE84" rx="3" ry="3" style="stroke:#038048;stroke-width:1.0;"/>
      <text fill="#000000" font-family="sans-serif" font-size="14" lengthAdjust="spacing" textLength="45.3496" x="1203" y="564.5889">build()</text>
      <ellipse cx="1194" cy="577.5391" fill="#84BE84" rx="3" ry="3" style="stroke:#038048;stroke-width:1.0;"/>
      <text fill="#000000" font-family="sans-serif" font-size="14" lengthAdjust="spacing" textLength="48.5762" x="1203" y="580.8857">clean()</text>
    </g>
    <!--class CMake-->
    <g id="elem_CMake">
      <rect codeLine="61" fill="#F1F1F1" height="96.8906" id="CMake" rx="2.5" ry="2.5" style="stroke:#181818;stroke-width:0.5;" width="103.0068" x="1053" y="656"/>
      <ellipse cx="1078.7336" cy="672" fill="#ADD1B2" rx="11" ry="11" style="stroke:#181818;stroke-width:1.0;"/>
      <path d="M1081.7024,677.6406 Q1081.1243,677.9375 1080.4836,678.0781 Q1079.843,678.2344 1079.1399,678.2344 Q1076.6399,678.2344 1075.3118,676.5938 Q1073.9993,674.9375 1073.9993,671.8125 Q1073.9993,668.6875 1075.3118,667.0313 Q1076.6399,665.375 1079.1399,665.375 Q1079.843,665.375 1080.4836,665.5313 Q1081.1399,665.6875 1081.7024,665.9844 L1081.7024,668.7031 Q1081.0774,668.125 1080.4836,667.8594 Q1079.8899,667.5781 1079.2649,667.5781 Q1077.9211,667.5781 1077.2336,668.6563 Q1076.5461,669.7188 1076.5461,671.8125 Q1076.5461,673.9063 1077.2336,674.9844 Q1077.9211,676.0469 1079.2649,676.0469 Q1079.8899,676.0469 1080.4836,675.7813 Q1081.0774,675.5 1081.7024,674.9219 L1081.7024,677.6406 Z " fill="#000000"/>
      <text fill="#000000" font-family="sans-serif" font-size="14" lengthAdjust="spacing" textLength="47.1543" x="1095.1189" y="676.8467">CMake</text>
      <line style="stroke:#181818;stroke-width:0.5;" x1="1054" x2="1155.0068" y1="688" y2="688"/>
      <line style="stroke:#181818;stroke-width:0.5;" x1="1054" x2="1155.0068" y1="696" y2="696"/>
      <ellipse cx="1064" cy="709.6484" fill="#84BE84" rx="3" ry="3" style="stroke:#038048;stroke-width:1.0;"/>
      <text fill="#000000" font-family="sans-serif" font-size="14" lengthAdjust="spacing" textLength="77.0068" x="1073" y="712.9951">configure()</text>
      <ellipse cx="1064" cy="725.9453" fill="#84BE84" rx="3" ry="3" style="stroke:#038048;stroke-width:1.0;"/>
      <text fill="#000000" font-family="sans-serif" font-size="14" lengthAdjust="spacing" textLength="45.3496" x="1073" y="729.292">build()</text>
      <ellipse cx="1064" cy="742.2422" fill="#84BE84" rx="3" ry="3" style="stroke:#038048;stroke-width:1.0;"/>
      <text fill="#000000" font-family="sans-serif" font-size="14" lengthAdjust="spacing" textLength="48.5762" x="1073" y="745.5889">clean()</text>
    </g>
    <!--class Makefile-->
    <g id="elem_Makefile">
      <rect codeLine="67" fill="#F1F1F1" height="96.8906" id="Makefile" rx="2.5" ry="2.5" style="stroke:#181818;stroke-width:0.5;" width="103.0068" x="1191" y="656"/>
      <ellipse cx="1211.538" cy="672" fill="#ADD1B2" rx="11" ry="11" style="stroke:#181818;stroke-width:1.0;"/>
      <path d="M1214.5067,677.6406 Q1213.9286,677.9375 1213.288,678.0781 Q1212.6474,678.2344 1211.9442,678.2344 Q1209.4442,678.2344 1208.1161,676.5938 Q1206.8036,674.9375 1206.8036,671.8125 Q1206.8036,668.6875 1208.1161,667.0313 Q1209.4442,665.375 1211.9442,665.375 Q1212.6474,665.375 1213.288,665.5313 Q1213.9442,665.6875 1214.5067,665.9844 L1214.5067,668.7031 Q1213.8817,668.125 1213.288,667.8594 Q1212.6942,667.5781 1212.0692,667.5781 Q1210.7255,667.5781 1210.038,668.6563 Q1209.3505,669.7188 1209.3505,671.8125 Q1209.3505,673.9063 1210.038,674.9844 Q1210.7255,676.0469 1212.0692,676.0469 Q1212.6942,676.0469 1213.288,675.7813 Q1213.8817,675.5 1214.5067,674.9219 L1214.5067,677.6406 Z " fill="#000000"/>
      <text fill="#000000" font-family="sans-serif" font-size="14" lengthAdjust="spacing" textLength="58.7002" x="1226.7687" y="676.8467">Makefile</text>
      <line style="stroke:#181818;stroke-width:0.5;" x1="1192" x2="1293.0068" y1="688" y2="688"/>
      <line style="stroke:#181818;stroke-width:0.5;" x1="1192" x2="1293.0068" y1="696" y2="696"/>
      <ellipse cx="1202" cy="709.6484" fill="#84BE84" rx="3" ry="3" style="stroke:#038048;stroke-width:1.0;"/>
      <text fill="#000000" font-family="sans-serif" font-size="14" lengthAdjust="spacing" textLength="77.0068" x="1211" y="712.9951">configure()</text>
      <ellipse cx="1202" cy="725.9453" fill="#84BE84" rx="3" ry="3" style="stroke:#038048;stroke-width:1.0;"/>
      <text fill="#000000" font-family="sans-serif" font-size="14" lengthAdjust="spacing" textLength="45.3496" x="1211" y="729.292">build()</text>
      <ellipse cx="1202" cy="742.2422" fill="#84BE84" rx="3" ry="3" style="stroke:#038048;stroke-width:1.0;"/>
      <text fill="#000000" font-family="sans-serif" font-size="14" lengthAdjust="spacing" textLength="48.5762" x="1211" y="745.5889">clean()</text>
    </g>
    <!--class Ninja-->
    <g id="elem_Ninja">
      <rect codeLine="73" fill="#F1F1F1" height="96.8906" id="Ninja" rx="2.5" ry="2.5" style="stroke:#181818;stroke-width:0.5;" width="103.0068" x="1329" y="656"/>
      <ellipse cx="1359.8862" cy="672" fill="#ADD1B2" rx="11" ry="11" style="stroke:#181818;stroke-width:1.0;"/>
      <path d="M1362.855,677.6406 Q1362.2769,677.9375 1361.6362,678.0781 Q1360.9956,678.2344 1360.2925,678.2344 Q1357.7925,678.2344 1356.4644,676.5938 Q1355.1519,674.9375 1355.1519,671.8125 Q1355.1519,668.6875 1356.4644,667.0313 Q1357.7925,665.375 1360.2925,665.375 Q1360.9956,665.375 1361.6362,665.5313 Q1362.2925,665.6875 1362.855,665.9844 L1362.855,668.7031 Q1362.23,668.125 1361.6362,667.8594 Q1361.0425,667.5781 1360.4175,667.5781 Q1359.0737,667.5781 1358.3862,668.6563 Q1357.6987,669.7188 1357.6987,671.8125 Q1357.6987,673.9063 1358.3862,674.9844 Q1359.0737,676.0469 1360.4175,676.0469 Q1361.0425,676.0469 1361.6362,675.7813 Q1362.23,675.5 1362.855,674.9219 L1362.855,677.6406 Z " fill="#000000"/>
      <text fill="#000000" font-family="sans-serif" font-size="14" lengthAdjust="spacing" textLength="35.7041" x="1377.4165" y="676.8467">Ninja</text>
      <line style="stroke:#181818;stroke-width:0.5;" x1="1330" x2="1431.0068" y1="688" y2="688"/>
      <line style="stroke:#181818;stroke-width:0.5;" x1="1330" x2="1431.0068" y1="696" y2="696"/>
      <ellipse cx="1340" cy="709.6484" fill="#84BE84" rx="3" ry="3" style="stroke:#038048;stroke-width:1.0;"/>
      <text fill="#000000" font-family="sans-serif" font-size="14" lengthAdjust="spacing" textLength="77.0068" x="1349" y="712.9951">configure()</text>
      <ellipse cx="1340" cy="725.9453" fill="#84BE84" rx="3" ry="3" style="stroke:#038048;stroke-width:1.0;"/>
      <text fill="#000000" font-family="sans-serif" font-size="14" lengthAdjust="spacing" textLength="45.3496" x="1349" y="729.292">build()</text>
      <ellipse cx="1340" cy="742.2422" fill="#84BE84" rx="3" ry="3" style="stroke:#038048;stroke-width:1.0;"/>
      <text fill="#000000" font-family="sans-serif" font-size="14" lengthAdjust="spacing" textLength="48.5762" x="1349" y="745.5889">clean()</text>
    </g>
    <!--reverse link Project to CProject-->
    <g id="link_Project_CProject">
      <path codeLine="79" d="M577.5361,364.8851 C489.1461,393.1651 387.01,427.35 283.5,467 C277.79,469.19 271.97,471.47 266.11,473.81 " fill="none" id="Project-backto-CProject" style="stroke:#181818;stroke-width:1.0;"/>
      <polygon fill="none" points="594.68,359.4,575.7077,359.1705,579.3645,370.5998,594.68,359.4" style="stroke:#181818;stroke-width:1.0;"/>
    </g>
    <!--reverse link Project to CppProject-->
    <g id="link_Project_CppProject">
      <path codeLine="80" d="M587.3397,417.6738 C559.4497,437.7438 544.96,448.16 518.83,466.96 " fill="none" id="Project-backto-CppProject" style="stroke:#181818;stroke-width:1.0;"/>
      <polygon fill="none" points="601.95,407.16,583.8351,412.8037,590.8443,422.5439,601.95,407.16" style="stroke:#181818;stroke-width:1.0;"/>
    </g>
    <!--reverse link Project to JavaProject-->
    <g id="link_Project_JavaProject">
      <path codeLine="81" d="M724.5,425.16 C724.5,445.23 724.5,448.16 724.5,466.96 " fill="none" id="Project-backto-JavaProject" style="stroke:#181818;stroke-width:1.0;"/>
      <polygon fill="none" points="724.5,407.16,718.5,425.16,730.5,425.16,724.5,407.16" style="stroke:#181818;stroke-width:1.0;"/>
    </g>
    <!--reverse link Project to PythonProject-->
    <g id="link_Project_PythonProject">
      <path codeLine="82" d="M861.6603,417.6738 C889.5503,437.7438 904.04,448.16 930.17,466.96 " fill="none" id="Project-backto-PythonProject" style="stroke:#181818;stroke-width:1.0;"/>
      <polygon fill="none" points="847.05,407.16,858.1557,422.5439,865.1649,412.8037,847.05,407.16" style="stroke:#181818;stroke-width:1.0;"/>
    </g>
    <!--link Project to BuildSystem-->
    <g id="link_Project_BuildSystem">
      <path codeLine="84" d="M854.17,349.09 C944.9,373.29 1067,412.33 1165.5,467 C1171.26,470.2 1172.0694,470.4211 1177.6794,474.3111 " fill="none" id="Project-to-BuildSystem" style="stroke:#181818;stroke-width:1.0;"/>
      <polygon fill="#181818" points="1182.61,477.73,1177.4933,469.3145,1178.5011,474.8809,1172.9348,475.8887,1182.61,477.73" style="stroke:#181818;stroke-width:1.0;"/>
    </g>
    <!--link RunConfiguration to Project-->
    <g id="link_RunConfiguration_Project">
      <path codeLine="85" d="M724.5,169.06 C724.5,188.44 724.5,203.25 724.5,222.97 " fill="none" id="RunConfiguration-to-Project" style="stroke:#181818;stroke-width:1.0;"/>
      <polygon fill="#181818" points="724.5,228.97,728.5,219.97,724.5,223.97,720.5,219.97,724.5,228.97" style="stroke:#181818;stroke-width:1.0;"/>
    </g>
    <!--reverse link BuildSystem to CMake-->
    <g id="link_BuildSystem_CMake">
      <path codeLine="87" d="M1186.3938,602.0261 C1168.7638,623.8661 1160.02,634.7 1143.06,655.72 " fill="none" id="BuildSystem-backto-CMake" style="stroke:#181818;stroke-width:1.0;"/>
      <polygon fill="none" points="1197.7,588.02,1181.7251,598.2573,1191.0625,605.7948,1197.7,588.02" style="stroke:#181818;stroke-width:1.0;"/>
    </g>
    <!--reverse link BuildSystem to Makefile-->
    <g id="link_BuildSystem_Makefile">
      <path codeLine="88" d="M1242.5,606.02 C1242.5,627.86 1242.5,634.7 1242.5,655.72 " fill="none" id="BuildSystem-backto-Makefile" style="stroke:#181818;stroke-width:1.0;"/>
      <polygon fill="none" points="1242.5,588.02,1236.5,606.02,1248.5,606.02,1242.5,588.02" style="stroke:#181818;stroke-width:1.0;"/>
    </g>
    <!--reverse link BuildSystem to Ninja-->
    <g id="link_BuildSystem_Ninja">
      <path codeLine="89" d="M1298.6062,602.0261 C1316.2362,623.8661 1324.98,634.7 1341.94,655.72 " fill="none" id="BuildSystem-backto-Ninja" style="stroke:#181818;stroke-width:1.0;"/>
      <polygon fill="none" points="1287.3,588.02,1293.9375,605.7948,1303.2749,598.2573,1287.3,588.02" style="stroke:#181818;stroke-width:1.0;"/>
    </g>
    <!--SRC=[nLHBReCm4Drp2Y-fMYw0eYoQNTL4A3d1r0p4gJ78dwgexTtBpyOEIgMs2zYW-VgzyHjJ3agHJDONf9fyHAJx4jACzW4gJCb9IoRAC9A1Fbz5NWpZ-QbL6gkKFCx64BudL29eZEyc4_9yN-U6OrmDF_yecpDqT1NIY1XagLBop9JUZAbR6sL2QU2yo_wA8ZgGseMiLe7GDEk3U88tM1z5rkfpBTR7SJHYLuk2bKQ2PhLmcXStnPxQ_PZSo_D2DdwdXqKJYwrZo8hs1_0vSlHcW-z8pM0xBjwMtQRHmPhupht26LAE80BPxk4LvplwRNbVNJ3-Zmu79YxmbtAhhyrdahW7uChhTZBqUsiI1WBbpaSaoJPuvXR2wXDSbNzL8un-IaktdTqoCipa6m00]-->
  </g>
</svg>